<svg width="64" height="50" viewBox="0 0 64 50" fill="none" xmlns="http://www.w3.org/2000/svg">
<path d="M63.431 38.2663C62.179 39.8656 59.115 41.0033 59.115 41.0033L36.3312 49.2874V43.1776L53.099 37.1326C55.003 36.4442 55.295 35.4644 53.747 34.9542C52.2031 34.44 49.4071 34.5898 47.5071 35.2782L36.3312 39.2623V32.9217L36.9752 32.703C36.9752 32.703 40.2031 31.5451 44.7431 31.0349C49.2831 30.5288 54.843 31.1037 59.207 32.7759C64.127 34.355 64.679 36.671 63.431 38.2663V38.2663ZM38.4992 27.8687V12.2399C38.4992 10.4057 38.1672 8.7173 36.4672 8.23953C35.1632 7.8144 34.3552 9.04122 34.3552 10.8713V50L23.9313 46.6515V0C28.3632 0.834076 34.8192 2.80185 38.2912 3.98818C47.1191 7.0532 50.1111 10.8713 50.1111 19.4753C50.1111 27.8606 44.9991 31.0389 38.4992 27.8646V27.8687ZM4.8034 42.546C-0.244561 41.0964 -1.08456 38.1002 1.21543 36.3754C3.34341 34.7801 6.95939 33.5817 6.95939 33.5817L21.9073 28.1966V34.3307L11.1474 38.2298C9.25137 38.9181 8.95937 39.8939 10.5034 40.4081C12.0473 40.9183 14.8433 40.7725 16.7433 40.0842L21.9033 38.1853V43.6756L20.8753 43.8497C15.4922 44.7319 9.97816 44.2832 4.8034 42.5419V42.546Z" fill="url(#paint0_linear_3_34)"/>
<defs>
<linearGradient id="paint0_linear_3_34" x1="0" y1="25" x2="64" y2="25" gradientUnits="userSpaceOnUse">
<stop stop-color="#FFCC17"/>
<stop offset="0.5" stop-color="#1796CC"/>
<stop offset="1" stop-color="#E90154"/>
</linearGradient>
</defs>
</svg>
