<svg width="40" height="40" viewBox="0 0 40 40" fill="none" xmlns="http://www.w3.org/2000/svg">
<path d="M6.62831 16.4C6.69535 15.5647 7.07457 14.7853 7.69044 14.217C8.30631 13.6487 9.11364 13.3332 9.95165 13.3333H30.0483C30.8863 13.3332 31.6937 13.6487 32.3095 14.217C32.9254 14.7853 33.3046 15.5647 33.3716 16.4L34.71 33.0667C34.7468 33.5253 34.6882 33.9866 34.538 34.4216C34.3878 34.8565 34.1492 35.2556 33.8371 35.5938C33.5251 35.9319 33.1465 36.2018 32.725 36.3865C32.3036 36.5711 31.8484 36.6665 31.3883 36.6667H8.61165C8.15152 36.6665 7.6964 36.5711 7.27495 36.3865C6.85349 36.2018 6.47483 35.9319 6.16281 35.5938C5.85078 35.2556 5.61215 34.8565 5.46193 34.4216C5.31172 33.9866 5.25317 33.5253 5.28998 33.0667L6.62831 16.4V16.4Z" stroke="black" stroke-width="2" stroke-linecap="round" stroke-linejoin="round"/>
<path d="M26.6666 18.3333V10C26.6666 8.2319 25.9643 6.53621 24.714 5.28597C23.4638 4.03572 21.7681 3.33334 20 3.33334C18.2319 3.33334 16.5362 4.03572 15.2859 5.28597C14.0357 6.53621 13.3333 8.2319 13.3333 10V18.3333" stroke="black" stroke-width="2" stroke-linecap="round" stroke-linejoin="round"/>
</svg>
